# xmcd CD database file
#
# Track frame offsets:
#	182
#	24075
#	80205
#	111745
#	153222
#	198727
#	222595
#	251310
#	294772
#	317287
#
# Disc length: 4678 seconds
#
# Revision: 5
# Processed by: cddbd v1.5.2PL0 Copyright (c) Steve Scherf et al.
# Submitted via: CDex 1.51
#
DISCID=8612440a
DTITLE=Various Artist - The History of Jazz ~ The Very Best of Swing, Bebop, Cool and Fusion  [CD 5-5]
DYEAR=2007
DGENRE=Jazz
TTITLE0=Charlie Mingus - Peggy's Blue Skylight  (Mingus)
TTITLE1=Freddie Hubbard - Bolivia  (Hubbard)
TTITLE2=Wynton Marsalis - Round 'Bout Midnight  (Monk)
TTITLE3=Chick Corea - Fiesta Piano Solo  (Carea)
TTITLE4=Ahmad Jamal - Tones for Joan's Bones  (Corea)
TTITLE5=Gary Burton - African Flower  (Ellington)
TTITLE6=Wes Montgomery - Blue Monk  (Monk)
TTITLE7=George Benson - Witchcraft  (Coleman - Leigh)
TTITLE8=B.B. King - The thrill Is Gone  (King)
TTITLE9=Pat Metheny - More To The Groove  (Copyright Control)
EXTD=Gold Collection YEAR: 2007
EXTT0=
EXTT1=
EXTT2=
EXTT3=
EXTT4=
EXTT5=
EXTT6=
EXTT7=
EXTT8=
EXTT9=
PLAYORDER=
